REM MD5 b5d2d7d420c179a58a4fce4919ea4b24
FILE "Hugo (Scandinavia) (Sv,No).bin" BINARY
  TRACK 01 MODE2/2352
    INDEX 01 00:00:00
  TRACK 02 AUDIO
    INDEX 00 45:19:07
    INDEX 01 45:21:07
  TRACK 03 AUDIO
    INDEX 00 47:30:36
    INDEX 01 47:32:36
  TRACK 04 AUDIO
    INDEX 00 49:11:09
    INDEX 01 49:13:09
  TRACK 05 AUDIO
    INDEX 00 50:25:32
    INDEX 01 50:27:32
REM LEADOUT 53:27:33
